<svg xmlns="http://www.w3.org/2000/svg" viewBox="0 0 188.56 131.4"><defs><style>.cls-1{fill:#1e1e1e;}.cls-2{isolation:isolate;}.cls-11,.cls-3{fill:#333;}.cls-4{fill:#474c52;}.cls-5{fill:#fff;}.cls-6{fill:#d61322;}.cls-7{fill:#ed1c24;}.cls-8{fill:#135650;}.cls-9{fill:#a50c26;}.cls-10{fill:#bc0f24;}.cls-11{fill-rule:evenodd;}.cls-12{fill:#eaae06;}</style></defs><g id="Layer_2" data-name="Layer 2"><g id="OBJECT"><path class="cls-1" d="M72.26,34.19a11.76,11.76,0,0,1,.06-1.2s0-.07,0-.1c0-.35.09-.7.15-1l0-.13a8.06,8.06,0,0,1,.23-.91,1.42,1.42,0,0,0,.05-.16c.1-.28.2-.54.31-.79l0-.08a6.63,6.63,0,0,1,.43-.79,5.89,5.89,0,0,1,.76-.94l.2-.2a5.66,5.66,0,0,1,.93-.7h0L22.24,58.1a5.08,5.08,0,0,0-.92.7l-.21.2a6.5,6.5,0,0,0-.76.94h0c-.15.24-.28.49-.41.75v0l0,.08c-.07.17-.15.34-.21.51s-.06.18-.09.27l-.06.16s0,.1,0,.15a5.12,5.12,0,0,0-.15.56c0,.07,0,.14,0,.2l0,.13c0,.07,0,.14,0,.2s0,.35-.08.53l0,.29a.41.41,0,0,1,0,.11s0,.08,0,.12l0,.52c0,.17,0,.35,0,.53v.54l0,.53c0,.18,0,.35,0,.53s0,.29.05.43v.1c0,.17.05.35.07.52s.06.36.1.54.07.36.1.53.06.27.1.4h0L72.76,38.29a19,19,0,0,1-.37-2.06v0A17.19,17.19,0,0,1,72.26,34.19Z"/><path class="cls-1" d="M150.33,81.21a13.88,13.88,0,0,1-.13-2c0-.42,0-.82.05-1.2a.41.41,0,0,0,0-.11q.06-.52.15-1l0-.13a8.65,8.65,0,0,1,.23-.91l.06-.16q.14-.41.3-.78a.59.59,0,0,0,0-.08,7.35,7.35,0,0,1,.43-.79,6.5,6.5,0,0,1,.76-.94l.21-.2a5.2,5.2,0,0,1,.92-.7l-53.22,30.92a5.65,5.65,0,0,0-.92.71l-.2.2a5.31,5.31,0,0,0-.76.93v0a6.66,6.66,0,0,0-.42.75v0l0,.08c-.08.17-.15.34-.22.52l-.09.27a.75.75,0,0,0-.05.16.88.88,0,0,0,0,.15l-.15.55a1.55,1.55,0,0,1,0,.21.59.59,0,0,0,0,.13,1.42,1.42,0,0,0,0,.2c0,.17-.06.34-.08.52l0,.3a.34.34,0,0,0,0,.1s0,.09,0,.13l0,.51c0,.18,0,.35,0,.53v0c0,.16,0,.31,0,.47s0,.33,0,.5,0,.34,0,.51l.06.52v0c0,.16,0,.32.07.48s.06.37.1.56l.12.58c0,.15.06.29.1.44l53.21-30.93c-.16-.69-.29-1.38-.38-2.06Z"/><g class="cls-2"><path class="cls-3" d="M28.93,57.55a3.13,3.13,0,0,1,.45-.22l.08,0,.15,0,.24-.09.25-.06.16,0,.09,0,.53-.07h.74l.27,0,.25,0,.22,0,.37.08.2,0,.45.13,0,0c.18.06.37.12.55.2l.22.09.22.1c.27.12.54.26.82.41s.57.34.86.53l.27.2.56.41.31.25.51.43.3.28.19.17.2.2c.2.21.4.41.6.63l.19.2.15.18.36.42.22.27c.07.08.12.16.18.24l.26.33c.05.08.11.15.17.23l.28.4c.06.09.12.17.17.26a.61.61,0,0,1,.07.1c.17.25.32.5.48.75l0,.06.09.16c.1.17.21.35.3.53l.14.26.14.27.12.22.3.64.05.11v0c.12.26.23.53.34.79a.88.88,0,0,1,0,.15c0,.1.08.2.11.3s.11.26.15.39.07.21.1.31l.12.37c0,.08.05.15.07.23s.07.27.11.41.08.3.11.45a.94.94,0,0,1,0,.16c0,.11,0,.22.07.33s.09.47.13.71l0,.19c0,.15,0,.3,0,.45s0,.21,0,.31c0,.33,0,.66,0,1,0,2.81-.94,4.81-2.54,5.76L36.2,82.51c1.59-1,2.56-2.94,2.53-5.75,0-.33,0-.66,0-1l0-.31-.09-.64c0-.24-.08-.48-.13-.71s-.06-.33-.1-.49l-.12-.46c-.06-.21-.11-.42-.18-.63s-.07-.24-.11-.37-.16-.47-.25-.71-.07-.19-.11-.29c-.13-.33-.26-.65-.41-1a.47.47,0,0,0,0-.1q-.2-.43-.42-.87c0-.09-.09-.17-.14-.26-.14-.27-.29-.53-.44-.79L36,68c-.18-.3-.38-.6-.57-.9l-.18-.26q-.21-.31-.45-.63l-.25-.33c-.13-.18-.27-.34-.41-.51l-.35-.42c-.12-.13-.23-.26-.35-.38s-.39-.42-.6-.63l-.38-.37-.31-.28c-.16-.15-.33-.29-.51-.43l-.3-.25-.57-.42L30.51,62c-.28-.19-.57-.37-.86-.53s-.55-.29-.82-.41l-.21-.1-.78-.3h0c-.23-.07-.44-.12-.66-.17l-.36-.08-.48-.06-.27,0h-.7l-.66.09-.15,0a4,4,0,0,0-.49.15l-.15.05a3.92,3.92,0,0,0-.58.29l5.58-3.34Z"/><path class="cls-4" d="M29.65,61.46c5,2.78,9,9.64,9.08,15.3s-3.92,8-8.88,5.21-9-9.63-9.09-15.3S24.69,58.68,29.65,61.46Z"/></g><g class="cls-2"><path class="cls-5" d="M29.7,66.39a10.18,10.18,0,0,1,4.72,7.94c0,3-2,4.15-4.62,2.71a10.18,10.18,0,0,1-4.72-7.94C25.06,66.16,27.12,64.94,29.7,66.39Z"/></g><g class="cls-2"><path class="cls-3" d="M107,102.77a3.61,3.61,0,0,1,.44-.22l.09,0,.15-.06.23-.08.26-.07.15,0,.09,0,.54-.07h.59l.15,0,.26,0,.25,0,.23,0,.36.07.2,0,.46.13,0,0c.19.06.37.12.56.2l.22.1.21.09c.27.12.55.26.82.41l.86.53.27.2.57.41.31.25.5.44.31.27.19.17.19.21c.21.2.41.41.6.62l.19.2.16.18.35.42.23.27.18.24.25.33c.06.08.12.15.17.23s.19.27.28.41l.18.25.07.11c.16.24.32.49.47.74l0,.06.09.16.31.53c0,.09.09.17.13.26s.1.18.14.27l.12.23q.17.32.3.63a.54.54,0,0,1,0,.11l0,0c.12.26.23.53.33.79l.06.15.11.3.15.39c0,.11.06.21.1.32s.08.24.11.36l.08.23c0,.14.06.27.1.41l.12.45c0,.06,0,.11,0,.16l.06.33c0,.24.09.47.13.71,0,.06,0,.13,0,.2s0,.29,0,.44l0,.31c0,.34,0,.67,0,1,0,2.81-.94,4.81-2.53,5.76l-5.59,3.34c1.59-.95,2.56-2.95,2.54-5.76q0-.49-.06-1c0-.1,0-.21,0-.31s-.05-.43-.09-.64-.08-.48-.13-.71-.06-.33-.1-.49-.08-.3-.12-.46-.11-.42-.17-.63l-.12-.37c-.08-.23-.16-.47-.25-.7s-.07-.2-.11-.3c-.12-.33-.26-.65-.4-1l0-.11-.42-.87a2.15,2.15,0,0,1-.14-.26c-.14-.27-.29-.53-.44-.79a.86.86,0,0,0-.1-.16c-.18-.31-.37-.61-.57-.91-.06-.09-.12-.17-.17-.26l-.45-.63-.26-.33-.4-.51-.36-.42-.34-.38c-.2-.22-.4-.42-.6-.63l-.39-.37-.3-.28-.51-.43-.31-.25-.56-.41c-.1-.07-.18-.14-.28-.2-.28-.19-.56-.36-.85-.53s-.56-.29-.83-.41l-.21-.1c-.26-.11-.52-.21-.77-.29l0,0c-.22-.07-.44-.12-.65-.17l-.37-.08-.47-.06-.27,0h-.7a6.57,6.57,0,0,0-.66.09l-.16,0a4,4,0,0,0-.49.15l-.15,0a5.23,5.23,0,0,0-.58.29l5.59-3.34Z"/><path class="cls-4" d="M107.69,106.68c5,2.79,9,9.64,9.08,15.3s-3.93,8-8.89,5.21-9-9.63-9.08-15.3S102.72,103.9,107.69,106.68Z"/></g><g class="cls-2"><path class="cls-5" d="M107.73,111.61a10.2,10.2,0,0,1,4.72,7.94c0,3-2,4.16-4.62,2.71a10.17,10.17,0,0,1-4.71-7.94C103.09,111.38,105.15,110.16,107.73,111.61Z"/></g><polygon class="cls-6" points="0.03 30.93 53.25 0 82.21 3.57 28.99 34.5 0.03 30.93"/><path class="cls-3" d="M68.29,4.9,55.93,3.37a6.13,6.13,0,0,0-3.82.79L13.35,26.68A1.57,1.57,0,0,0,14,29.6l12.36,1.52a6.1,6.1,0,0,0,3.83-.78L68.89,7.82A1.57,1.57,0,0,0,68.29,4.9Z"/><polygon class="cls-7" points="28.99 34.5 82.21 3.57 121.85 26.46 68.63 57.38 28.99 34.5"/><polygon class="cls-6" points="68.63 57.38 121.85 26.46 146.34 53.74 93.12 84.67 68.63 57.38"/><path class="cls-3" d="M139.53,50.68,122.62,31.84a2.52,2.52,0,0,0-3.16-.5L76.05,56.56a2.54,2.54,0,0,0-.61,3.89L92.35,79.29a2.54,2.54,0,0,0,3.16.5l43.4-25.22A2.54,2.54,0,0,0,139.53,50.68Z"/><polygon class="cls-8" points="135.32 126.7 188.54 95.78 180.47 100.47 127.25 131.4 135.32 126.7"/><polygon class="cls-7" points="93.12 84.67 146.34 53.74 173.77 69.58 120.55 100.51 93.12 84.67"/><path class="cls-9" d="M68.63,57.38,93.12,84.67l27.43,15.84,14.8,17.16,0,9-8.07,4.7-8.88-5.13a10.88,10.88,0,0,0,.52-3.5c0-7-4.87-15.42-10.91-18.91s-11-.69-11,6.25a17.4,17.4,0,0,0,.52,4.11L40.42,81.27a10.9,10.9,0,0,0,.54-3.5C41,70.83,36.09,62.35,30,58.86s-11-.69-11,6.26a16.7,16.7,0,0,0,.5,4.09L9.41,63.36,0,41.79,0,30.93,29,34.5Z"/><polygon class="cls-10" points="135.35 117.67 188.56 86.75 188.54 95.78 135.32 126.7 135.35 117.67"/><polygon class="cls-6" points="120.55 100.51 173.77 69.58 188.56 86.75 135.35 117.67 120.55 100.51"/><path class="cls-11" d="M51.61,63.87l-4.26-2.48a1.84,1.84,0,0,1-.76-1.45h0c0-.56.35-.82.76-.58l4.26,2.47a1.84,1.84,0,0,1,.77,1.46h0C52.38,63.85,52,64.11,51.61,63.87Z"/><path class="cls-10" d="M136.85,105.9l-6.41-3.73c0,2.27,8.51,8.34,8.51,8.34C137.66,109.76,136.86,108.16,136.85,105.9Z"/><path class="cls-9" d="M148.55,99.14c1.25-.72,2.28-.14,2.28,1.31v3a5.1,5.1,0,0,1-2.32,4L144.07,110c-4,2.29-7.2.45-7.22-4.11Z"/><path class="cls-12" d="M140.84,109.48c-1.75,0-2.28-1.55-2.43-2.74l10.91-6.3v3a3.64,3.64,0,0,1-1.56,2.71l-4.46,2.57A5.12,5.12,0,0,1,140.84,109.48Z"/><path class="cls-7" d="M149.05,98.92a1.76,1.76,0,0,1,.37-.08h0a1.12,1.12,0,0,1,.37,0h0a1.2,1.2,0,0,1,.33.13l-6.41-3.73h0l-.12,0-.12,0h-.13l-.13,0h-.32l-.21,0-.08,0-.08,0-.1,0a2.39,2.39,0,0,0-.32.16l-11.7,6.75,6.41,3.73,11.7-6.76A2.6,2.6,0,0,1,149,99Z"/><path class="cls-9" d="M181.73,80a15.8,15.8,0,0,1-7.17,12.41L170.11,95c-1.29.74-2.33.15-2.34-1.33v-3A5,5,0,0,1,170,86.74Z"/><path class="cls-12" d="M169.27,90.67a3.57,3.57,0,0,1,1.52-2.62l9-5.2a14.54,14.54,0,0,1-6,8.24l-4.53,2.61S169.27,90.67,169.27,90.67Z"/><path class="cls-7" d="M167.82,90.07a4.48,4.48,0,0,1,.11-.5l0,0a3.39,3.39,0,0,1,.2-.53h0q.12-.27.27-.54h0a5.14,5.14,0,0,1,.32-.49l0,0a4.12,4.12,0,0,1,.33-.4l.08-.08.15-.15a4.23,4.23,0,0,1,.69-.53L181.73,80l-6.41-3.73L163.62,83a3.74,3.74,0,0,0-.69.53l-.07,0-.08.1a.6.6,0,0,0-.08.08l-.09.09-.18.22-.06.09,0,0-.06.08a1.37,1.37,0,0,0-.13.2,1.22,1.22,0,0,0-.12.19h0v0l-.09.16c0,.07-.07.13-.1.19l-.08.18h0a1.8,1.8,0,0,0-.08.21l-.08.21,0,.11,0,0a.19.19,0,0,1,0,.07c0,.09-.05.18-.06.26l0,.16a.25.25,0,0,0,0,.08s7,8.71,7,8.71a1.61,1.61,0,0,1-.68-1.49v-3a3.15,3.15,0,0,1,.05-.52A.19.19,0,0,1,167.82,90.07Z"/><path class="cls-3" d="M45.89,47.74l-16.3-9.41A8.83,8.83,0,0,0,26.2,37.2L13.42,35.62A.74.74,0,0,0,13,37L45.89,56Z"/><path class="cls-3" d="M79,73.46,67.66,60.82A9.19,9.19,0,0,0,65.47,59L47.25,48.53V56.8L78.08,74.59A.74.74,0,0,0,79,73.46Z"/></g></g></svg>