<svg xmlns="http://www.w3.org/2000/svg" viewBox="0 0 181.58 148.1"><defs><style>.cls-1,.cls-5{fill:#474c52;}.cls-1,.cls-13,.cls-14,.cls-2,.cls-4,.cls-6,.cls-7,.cls-8{fill-rule:evenodd;}.cls-15,.cls-2{fill:#2e3235;}.cls-13,.cls-3{fill:#1e1e1e;}.cls-11,.cls-4{fill:#333;}.cls-6{fill:#e8e5e0;}.cls-7{fill:#cecece;}.cls-8{fill:#fff;}.cls-9{fill:#00aaad;}.cls-10{fill:#11897d;}.cls-12{fill:#0a665b;}.cls-14{fill:#ffc60b;}</style></defs><g id="Layer_2" data-name="Layer 2"><g id="OBJECT"><path class="cls-1" d="M154.1,57.05l-1.27-.74-.18-.07-.19,0-.2,0-.21,0-.22,0-.23.09-.23.12-2.83,1.63-.23.15-.23.18a5.34,5.34,0,0,0-1,1.22l-.17.29-.15.31-.13.31-.11.32-.1.32-.08.33-.06.33,0,.32v8.24l0,.29.06.26.08.24.1.21.11.19.13.16.15.13.17.1,1.26.73-.16-.1L153.92,57Z"/><path class="cls-2" d="M152.63,57.19l-2.82,1.63a5.53,5.53,0,0,0-2.31,4.4v7.62c0,1.69,1,2.47,2.31,1.74L152.63,71a5.53,5.53,0,0,0,2.31-4.41V58.93C154.94,57.24,153.9,56.45,152.63,57.19Z"/><path class="cls-3" d="M70.14,50.51c0-.35.09-.7.15-1l0-.13a8.06,8.06,0,0,1,.23-.91l.06-.17q.14-.41.3-.78a.2.2,0,0,1,0-.08,7.35,7.35,0,0,1,.43-.79,6.5,6.5,0,0,1,.76-.94l.21-.2a5.65,5.65,0,0,1,.92-.71L20.06,75.71a5.27,5.27,0,0,0-.93.7l-.2.2a5.79,5.79,0,0,0-.76.94v0a6.66,6.66,0,0,0-.42.75v0l0,.09c-.08.16-.15.33-.22.51l-.09.27a1,1,0,0,0-.05.16.88.88,0,0,0-.05.15c-.05.18-.1.36-.15.56a1.77,1.77,0,0,1,0,.2.69.69,0,0,0,0,.13,1.42,1.42,0,0,0,0,.2c0,.17-.06.35-.08.53a2.77,2.77,0,0,0,0,.3.34.34,0,0,0,0,.1s0,.08,0,.12l0,.52c0,.18,0,.35,0,.53v0L70.07,51.82c0-.42,0-.82.06-1.21C70.13,50.58,70.14,50.54,70.14,50.51Z"/><path class="cls-3" d="M147.46,95.15a8.23,8.23,0,0,1,.15-1s0-.08,0-.13c.07-.31.15-.62.24-.91,0,0,0-.11,0-.16a6.67,6.67,0,0,1,.31-.78l0-.09a8.5,8.5,0,0,1,.44-.79,5.89,5.89,0,0,1,.76-.94l.2-.2a5.66,5.66,0,0,1,.93-.7L97.37,120.34a5.65,5.65,0,0,0-.92.71l-.21.2a6.4,6.4,0,0,0-.76.93v0a6.63,6.63,0,0,0-.41.75v0a.36.36,0,0,0,0,.09c-.07.16-.15.33-.21.5a2.29,2.29,0,0,0-.09.28l-.06.16s0,.09,0,.14a5.12,5.12,0,0,0-.15.56,1.55,1.55,0,0,0,0,.21l0,.13c0,.07,0,.13,0,.2s0,.34-.08.52l0,.3s0,.07,0,.11,0,.08,0,.12a4.41,4.41,0,0,0,0,.52c0,.17,0,.35,0,.53v0l53.22-30.92a11.81,11.81,0,0,1,.06-1.21A.34.34,0,0,1,147.46,95.15Z"/><polygon class="cls-4" points="118.76 136.55 118.72 135.99 118.66 135.42 118.58 134.85 118.48 134.27 118.35 133.7 118.21 133.12 118.04 132.54 117.86 131.96 117.65 131.38 117.43 130.8 117.19 130.23 116.93 129.66 116.66 129.1 116.37 128.55 116.06 128 115.74 127.46 115.41 126.93 115.06 126.41 114.69 125.91 114.32 125.41 113.93 124.93 113.53 124.47 113.12 124.02 112.7 123.58 112.28 123.17 111.84 122.77 111.39 122.39 110.93 122.03 110.47 121.7 110 121.39 109.53 121.1 108.58 120.61 107.66 120.24 106.78 119.99 105.93 119.86 105.12 119.84 104.36 119.94 103.65 120.14 102.99 120.45 99.97 122.2 96.81 124.02 109.88 146.66 110.63 146.23 110.62 146.24 113.89 144.35 114.56 143.97 114.56 143.96 116.06 143.09 116.66 142.68 117.19 142.17 117.65 141.55 118.04 140.85 118.35 140.04 118.58 139.15 118.72 138.17 118.77 137.11 118.76 136.55"/><ellipse class="cls-5" cx="103.42" cy="135.34" rx="7.55" ry="13.07" transform="translate(-53.81 69.84) rotate(-30)"/><path class="cls-6" d="M103.35,128.45a13.19,13.19,0,0,1,6,10.33c0,3.81-2.67,5.35-6,3.45a13.17,13.17,0,0,1-6-10.33C97.38,128.09,100.05,126.55,103.35,128.45Z"/><path class="cls-7" d="M103.35,129.05a12.06,12.06,0,0,1,5.44,9.43c0,3.48-2.44,4.88-5.44,3.15a12,12,0,0,1-5.45-9.43C97.9,128.73,100.34,127.32,103.35,129.05Z"/><path class="cls-8" d="M104.1,132a5.57,5.57,0,0,1,2.55,4.42,1.8,1.8,0,0,1-.74,1.65l-.76.43a1.79,1.79,0,0,1-1.8-.17,5.61,5.61,0,0,1-2.55-4.42,1.79,1.79,0,0,1,.74-1.65l.76-.44A1.77,1.77,0,0,1,104.1,132Z"/><path class="cls-6" d="M103.35,132.4a5.16,5.16,0,0,1,1.8,1.9,5.23,5.23,0,0,1,.75,2.51,1.56,1.56,0,0,1-2.55,1.48,5.61,5.61,0,0,1-2.55-4.42,1.55,1.55,0,0,1,2.55-1.47Z"/><path class="cls-7" d="M102.56,133.47a1.3,1.3,0,0,1,.57,1c0,.36-.26.51-.57.33a1.27,1.27,0,0,1-.58-1C102,133.44,102.24,133.29,102.56,133.47Z"/><path class="cls-7" d="M104.14,134.53a1.28,1.28,0,0,1,.57,1c0,.36-.26.51-.57.33a1.28,1.28,0,0,1-.58-1C103.56,134.5,103.82,134.35,104.14,134.53Z"/><path class="cls-7" d="M102.56,135.27a1.3,1.3,0,0,1,.57,1c0,.36-.26.51-.57.33a1.27,1.27,0,0,1-.58-1C102,135.24,102.24,135.09,102.56,135.27Z"/><path class="cls-7" d="M104.14,136.33a1.28,1.28,0,0,1,.57,1c0,.37-.26.52-.57.34a1.28,1.28,0,0,1-.58-1C103.56,136.3,103.82,136.15,104.14,136.33Z"/><polygon class="cls-4" points="41.44 92.25 41.41 91.68 41.35 91.12 41.27 90.54 41.16 89.97 41.04 89.39 40.89 88.81 40.73 88.23 40.54 87.65 40.34 87.07 40.12 86.5 39.88 85.92 39.62 85.36 39.34 84.79 39.05 84.24 38.75 83.69 38.42 83.15 38.09 82.62 37.74 82.11 37.38 81.6 37 81.1 36.62 80.62 36.22 80.16 35.81 79.71 35.39 79.27 34.96 78.86 34.52 78.46 34.07 78.08 33.62 77.73 33.16 77.39 32.69 77.08 32.21 76.79 31.26 76.3 30.35 75.93 29.46 75.68 28.61 75.55 27.8 75.53 27.04 75.63 26.33 75.83 25.67 76.14 22.65 77.89 19.49 79.71 32.57 102.36 33.31 101.93 33.31 101.93 36.58 100.04 37.24 99.66 37.24 99.66 38.75 98.79 39.34 98.37 39.88 97.86 40.34 97.25 40.73 96.54 41.04 95.74 41.27 94.85 41.41 93.87 41.45 92.8 41.44 92.25"/><ellipse class="cls-5" cx="26.1" cy="91.03" rx="7.55" ry="13.07" transform="translate(-42.02 25.25) rotate(-30)"/><path class="cls-6" d="M26,84.14a13.19,13.19,0,0,1,6,10.34c0,3.8-2.67,5.34-6,3.44a13.2,13.2,0,0,1-6-10.33C20.06,83.78,22.74,82.24,26,84.14Z"/><path class="cls-7" d="M26,84.75a12,12,0,0,1,5.44,9.43c0,3.47-2.43,4.87-5.44,3.14a12,12,0,0,1-5.44-9.43C20.59,84.42,23,83,26,84.75Z"/><path class="cls-8" d="M26.79,87.65a5.27,5.27,0,0,1,1.8,1.91,5.2,5.2,0,0,1,.75,2.51,1.8,1.8,0,0,1-.75,1.65l-.76.44A1.82,1.82,0,0,1,26,94a5.69,5.69,0,0,1-2.55-4.42,1.8,1.8,0,0,1,.75-1.65l.75-.44A1.81,1.81,0,0,1,26.79,87.65Z"/><path class="cls-6" d="M26,88.09a5.16,5.16,0,0,1,1.8,1.9,5.24,5.24,0,0,1,.75,2.52,1.8,1.8,0,0,1-.75,1.65A1.82,1.82,0,0,1,26,94a5.69,5.69,0,0,1-2.55-4.42,1.8,1.8,0,0,1,.75-1.65A1.77,1.77,0,0,1,26,88.09Z"/><path class="cls-7" d="M25.24,89.17a1.24,1.24,0,0,1,.57,1c0,.37-.25.51-.57.33a1.25,1.25,0,0,1-.57-1C24.67,89.13,24.92,89,25.24,89.17Z"/><path class="cls-7" d="M26.82,90.22a1.27,1.27,0,0,1,.57,1c0,.36-.25.51-.57.33a1.26,1.26,0,0,1-.57-1C26.25,90.19,26.5,90,26.82,90.22Z"/><path class="cls-7" d="M25.24,91a1.27,1.27,0,0,1,.57,1c0,.36-.25.51-.57.33a1.25,1.25,0,0,1-.57-1C24.67,90.93,24.92,90.78,25.24,91Z"/><path class="cls-7" d="M26.82,92a1.26,1.26,0,0,1,.57,1c0,.36-.25.51-.57.33a1.27,1.27,0,0,1-.57-1C26.25,92,26.5,91.84,26.82,92Z"/><polygon class="cls-9" points="12.89 30.93 66.11 0 135.92 40.31 82.71 71.23 12.89 30.93"/><polygon class="cls-10" points="82.71 71.23 135.92 40.31 151.92 71.12 98.71 102.05 82.71 71.23"/><path class="cls-11" d="M146,66.34l-9.27-17.85a4.28,4.28,0,0,0-5.94-1.73L90.24,70.35A4.29,4.29,0,0,0,88.59,76l9.27,17.84a4.27,4.27,0,0,0,5.94,1.73L144.39,72A4.27,4.27,0,0,0,146,66.34Z"/><polygon class="cls-10" points="120.5 114.63 173.71 83.7 179.17 114.8 125.95 145.73 120.5 114.63"/><polygon class="cls-9" points="98.71 102.05 151.92 71.12 173.71 83.7 120.5 114.63 98.71 102.05"/><path class="cls-12" d="M82.71,71.23l16,30.82,21.79,12.58,5.45,31.1-9.86-5.7c0-6.95-4.87-15.43-10.93-18.92s-11-.69-11,6.27l-55.4-32c0-7-4.87-15.43-10.91-18.92s-11-.69-11,6.26L2,74.19l.08-27.91L12.89,30.93Z"/><polygon class="cls-4" points="16.86 76.14 16.86 82.76 14.82 83.87 14.82 77.32 16.86 76.14"/><path class="cls-1" d="M16.86,76.14l-2,1.18C1.67,71.09.4,68.81,0,65.3a6.46,6.46,0,0,1,2-5.41l0,4.65V65c0,1.83,1.64,3.67,4.19,5.14Z"/><polygon class="cls-13" points="14.82 77.32 14.82 83.87 4.96 78.37 4.73 78.25 4.5 78.12 4.28 77.99 4.05 77.86 3.83 77.72 3.61 77.57 3.4 77.42 3.19 77.27 2.98 77.11 2.77 76.94 2.58 76.77 2.38 76.59 2.19 76.41 2.01 76.22 1.83 76.02 1.66 75.82 1.49 75.61 1.33 75.39 1.18 75.17 1.04 74.93 0.9 74.69 0.77 74.45 0.65 74.19 0.54 73.93 0.44 73.66 0.35 73.38 0.26 73.09 0.19 72.79 0.13 72.49 0.08 72.17 0.04 71.85 0.02 71.65 0.01 71.45 0 71.25 0 64.7 0.01 64.9 0.02 65.1 0.04 65.3 0.08 65.62 0.13 65.94 0.19 66.24 0.26 66.54 0.35 66.83 0.44 67.11 0.54 67.38 0.65 67.64 0.77 67.9 0.9 68.14 1.04 68.39 1.18 68.62 1.33 68.84 1.49 69.06 1.66 69.27 1.83 69.47 2.01 69.67 2.19 69.86 2.38 70.04 2.58 70.22 2.77 70.39 2.98 70.56 3.19 70.72 3.4 70.88 3.61 71.02 3.83 71.17 4.05 71.31 4.28 71.44 4.5 71.57 4.73 71.7 4.96 71.82 14.82 77.32"/><path class="cls-1" d="M94.91,91.18l-1.26-.73-.18-.08-.19,0h-.2l-.21,0-.22,0-.23.08-.24.12-2.82,1.63-.24.15-.23.18a5.86,5.86,0,0,0-1,1.22l-.16.3-.15.3-.13.31-.12.32-.1.33-.07.33L87.1,96l0,.33v8.24l0,.28.06.26.07.24.1.21.12.19.13.16.15.13.16.11,1.27.73-.17-.11,5.74-15.64Z"/><path class="cls-2" d="M93.45,91.32,90.62,93a5.54,5.54,0,0,0-2.3,4.41V105c0,1.69,1,2.48,2.3,1.75l2.83-1.63a5.55,5.55,0,0,0,2.3-4.41V93.07C95.75,91.37,94.72,90.59,93.45,91.32Z"/><path class="cls-4" d="M67.33,84.6l-4.26-2.47a1.83,1.83,0,0,1-.76-1.46h0c0-.56.34-.82.76-.57l4.26,2.47A1.83,1.83,0,0,1,68.09,84h0C68.09,84.58,67.75,84.84,67.33,84.6Z"/><path class="cls-4" d="M36.73,67l-4.26-2.47A1.83,1.83,0,0,1,31.71,63h0c0-.56.34-.81.76-.57l4.26,2.47a1.83,1.83,0,0,1,.76,1.46h0C37.49,66.94,37.15,67.19,36.73,67Z"/><path class="cls-2" d="M131.18,118.74c2.7-1.55,4.88-.29,4.88,2.82a10.78,10.78,0,0,1-4.88,8.44c-2.69,1.55-4.87.29-4.87-2.82A10.79,10.79,0,0,1,131.18,118.74Z"/><polygon class="cls-1" points="127.74 130.34 126.03 129.35 125.71 129.13 125.43 128.86 125.19 128.54 124.98 128.17 124.82 127.74 124.7 127.27 124.63 126.76 124.6 126.2 124.63 125.61 124.7 125.01 124.82 124.4 124.98 123.78 125.19 123.17 125.43 122.57 125.71 121.97 126.03 121.39 126.37 120.83 126.75 120.29 127.15 119.78 127.58 119.29 128.03 118.84 128.49 118.44 128.98 118.07 129.47 117.75 129.97 117.5 130.46 117.3 130.92 117.17 131.37 117.1 131.8 117.09 132.2 117.14 132.57 117.25 132.92 117.41 134.63 118.4 134.28 118.24 133.91 118.13 133.51 118.08 133.08 118.09 132.63 118.16 132.17 118.29 131.68 118.48 131.19 118.74 130.69 119.06 130.2 119.42 129.74 119.83 129.29 120.28 128.86 120.76 128.46 121.28 128.08 121.82 127.74 122.38 127.42 122.96 127.14 123.56 126.9 124.16 126.69 124.77 126.53 125.38 126.41 125.99 126.34 126.59 126.31 127.18 126.34 127.75 126.41 128.26 126.53 128.73 126.69 129.15 126.9 129.53 127.14 129.85 127.42 130.12 127.74 130.34"/><path class="cls-14" d="M131.18,120.2c2-1.15,3.61-.21,3.61,2.09a8,8,0,0,1-3.61,6.25c-2,1.15-3.6.22-3.6-2.09A8,8,0,0,1,131.18,120.2Z"/><path class="cls-2" d="M172.57,94.55c2.69-1.55,4.87-.29,4.87,2.82a10.76,10.76,0,0,1-4.87,8.44c-2.69,1.55-4.87.29-4.87-2.81A10.79,10.79,0,0,1,172.57,94.55Z"/><polygon class="cls-1" points="169.12 106.15 167.41 105.16 167.1 104.95 166.82 104.67 166.57 104.35 166.37 103.98 166.21 103.56 166.09 103.09 166.01 102.57 165.99 102.01 166.01 101.42 166.09 100.82 166.21 100.21 166.37 99.6 166.57 98.99 166.82 98.38 167.1 97.79 167.41 97.2 167.76 96.64 168.13 96.1 168.54 95.59 168.96 95.11 169.41 94.66 169.88 94.25 170.36 93.88 170.86 93.57 171.36 93.31 171.84 93.11 172.31 92.98 172.76 92.91 173.18 92.91 173.58 92.95 173.96 93.06 174.31 93.23 176.02 94.21 175.67 94.05 175.29 93.94 174.89 93.89 174.47 93.9 174.02 93.97 173.55 94.1 173.07 94.3 172.57 94.56 172.07 94.87 171.59 95.24 171.12 95.64 170.67 96.09 170.25 96.58 169.84 97.09 169.47 97.63 169.12 98.19 168.81 98.77 168.53 99.37 168.28 99.97 168.08 100.58 167.91 101.2 167.79 101.81 167.72 102.41 167.7 103 167.72 103.56 167.79 104.07 167.91 104.54 168.08 104.97 168.28 105.34 168.53 105.66 168.81 105.93 169.12 106.15"/><path class="cls-14" d="M172.57,96c2-1.15,3.61-.22,3.61,2.08a8,8,0,0,1-3.61,6.25c-2,1.15-3.61.22-3.61-2.08A8,8,0,0,1,172.57,96Z"/><path class="cls-13" d="M177.51,109v3.06h0l2.64-1.53.57-.39.43-.43.27-.44.14-.46v6.4l-.14.46-.27.44-.43.43-.57.39-2.64,1.53h0l-48.34,27.83h0l-1.71,1-.33.18-.35.15-.36.13-.38.11-.38.1-.4.07-.39,0-.39,0h-.4l-.38,0-.38,0L123,148l-.35-.08-.33-.1-.31-.13-.29-.15-3.89-2.24-.47-.35-.32-.39-.17-.43,0-.45v-6.4l0,.45.17.42.32.4.47.35,3.89,2.24.29.15.31.12.33.11.35.08.37.06.38,0h.78l.39,0,.39,0,.4-.07.38-.09.38-.11.36-.13.35-.16.33-.17,1.71-1h0l47.22-27.27Zm0,3.06v6.39h0Z"/><path class="cls-1" d="M118.2,135.53l6.61,3.82,53.08-30.56-.37-3.36,3.06,1.77c1.48.85,1.29,2.36-.42,3.34l-2.64,1.53h0l-48.34,27.83h0l-1.71,1a6.49,6.49,0,0,1-5.79.24l-3.89-2.24C116.31,138,116.49,136.52,118.2,135.53Z"/><polygon class="cls-11" points="60.21 76.05 60.21 61.73 32.52 45.75 32.52 60.06 60.21 76.05"/><path class="cls-11" d="M30.43,44.54l-13.92-8a3.46,3.46,0,0,0-4.55,1L8.59,42.31a3.14,3.14,0,0,0,1,4.52l20.84,12Z"/><path class="cls-11" d="M88.59,89.12,80.89,74.3a3.36,3.36,0,0,0-1.33-1.39l-17.25-10V77.26L86.43,91.19A1.56,1.56,0,0,0,88.59,89.12Z"/><polygon class="cls-1" points="94.17 120.96 37.26 88.17 34.6 89.7 91.53 122.49 94.17 120.96"/><polygon class="cls-13" points="91.53 122.49 34.6 89.7 34.6 96.1 91.53 128.89 91.53 122.49"/><polygon class="cls-4" points="94.17 120.96 94.17 127.38 91.53 128.89 91.53 122.49 94.17 120.96"/><polygon class="cls-3" points="161.73 97.81 138.98 110.77 137.43 114.63 140.31 126.65 141.8 127.07 164.61 113.62 165.99 110.44 163.7 98.99 161.73 97.81"/><polygon class="cls-5" points="165.16 109.31 164.43 108.98 164.06 107.05 164.79 107.38 165.16 109.31"/><polygon class="cls-5" points="164.53 105.97 163.8 105.63 163.43 103.7 164.16 104.03 164.53 105.97"/><polygon class="cls-5" points="163.9 102.62 163.17 102.29 162.8 100.35 163.53 100.69 163.9 102.62"/><path class="cls-5" d="M162.46,98.59l-.73-.33a1.56,1.56,0,0,1,.73.73l.72.34A1.53,1.53,0,0,0,162.46,98.59Z"/><path class="cls-5" d="M165.34,110.77h0l-.73-.33a2.85,2.85,0,0,1,0,.4v0a2.59,2.59,0,0,1-.09.4h0a2.74,2.74,0,0,1-.15.4v0a3,3,0,0,1-.18.36l0,0a2.92,2.92,0,0,1-.21.32.1.1,0,0,1,0,0,2.6,2.6,0,0,1-.25.31c-.06.07-.14.13-.21.2l-.1.1a2.71,2.71,0,0,1-.35.24l-21,12.4-.38.18-.08,0a1.55,1.55,0,0,1-.36.08h0a1.51,1.51,0,0,1-.37,0h0a1.35,1.35,0,0,1-.34-.11l.72.34h0l.12,0,.13,0h.59l.19,0,.08,0,.07,0,.1,0,.29-.15,21.05-12.4a2.71,2.71,0,0,0,.35-.24l.1-.1a1.94,1.94,0,0,0,.21-.2h0a1.59,1.59,0,0,0,.2-.24l.05-.06a.21.21,0,0,0,0-.06l.06-.08.12-.18,0-.06,0,0,0-.08a1.42,1.42,0,0,0,.08-.18l0-.1v0l0,0,.06-.18a.85.85,0,0,0,.06-.17h0c0-.06,0-.11,0-.17a1.29,1.29,0,0,0,0-.19v-.09a.5.5,0,0,1,0-.12c0-.08,0-.16,0-.24v0Z"/><polygon class="cls-5" points="139.97 124.15 139.25 123.81 164.43 108.98 165.16 109.31 139.97 124.15"/><polygon class="cls-5" points="163.8 105.63 138.62 120.47 139.34 120.8 164.53 105.97 163.8 105.63"/><polygon class="cls-5" points="163.17 102.29 137.98 117.12 138.71 117.45 163.9 102.62 163.17 102.29"/><polygon class="cls-5" points="162.46 98.99 137.43 113.73 138.16 114.07 163.19 99.33 162.46 98.99"/><path class="cls-5" d="M161.35,97.06a2.93,2.93,0,0,1,.57-.13H162a2.31,2.31,0,0,1,.59,0h0a2.14,2.14,0,0,1,.56.17l-.73-.34h0l-.2-.07-.2-.06-.14,0h-.07l-.23,0h-.5l-.31.07-.13,0-.12,0-.15,0a3.39,3.39,0,0,0-.47.23l-21,12.4a4.19,4.19,0,0,0-.6.44l-.18.16c-.09.09-.19.17-.27.26l-.12.13-.09.12-.12.13-.23.33-.08.12,0,.06-.07.12a2.54,2.54,0,0,0-.16.28c-.05.09-.09.18-.14.28v0l-.11.23c0,.1-.07.19-.1.28a2.41,2.41,0,0,0-.08.25v0a2.45,2.45,0,0,0-.08.29,2.82,2.82,0,0,0-.07.31c0,.05,0,.09,0,.14v.07a.5.5,0,0,0,0,.12,2.22,2.22,0,0,0,0,.37c0,.07,0,.14,0,.22v.23a4.2,4.2,0,0,0,.07.62l1.93,10.25a2.7,2.7,0,0,0,1.44,2l.73.33a2.7,2.7,0,0,1-1.44-2L137,115.43a6,6,0,0,1-.07-.74v-.12a5.83,5.83,0,0,1,.06-.71v-.06a5,5,0,0,1,.17-.77v0a5.83,5.83,0,0,1,.28-.76v0a6.8,6.8,0,0,1,.38-.7l0-.06c.13-.2.27-.39.42-.58l.1-.11a4.78,4.78,0,0,1,.39-.39l.18-.17a4.12,4.12,0,0,1,.6-.43l21.05-12.4a2.88,2.88,0,0,1,.62-.29Z"/><path class="cls-15" d="M164.59,99.17a2.49,2.49,0,0,0-4-1.78l-21.05,12.4a5.79,5.79,0,0,0-2.58,5.64l1.93,10.24a2.5,2.5,0,0,0,4,1.78l21.05-12.4a5.79,5.79,0,0,0,2.58-5.64Zm-24.77,12,21.05-12.4a1.53,1.53,0,0,1,2.31.57l-25,14.74A3.7,3.7,0,0,1,139.82,111.16Zm-1.47,4.36,25.18-14.83.37,1.93-25.19,14.83Zm.63,3.35L164.16,104l.37,1.94L139.34,120.8Zm24.7-5.19-21.05,12.4a1.53,1.53,0,0,1-2.31-.57l25-14.74A3.7,3.7,0,0,1,163.68,113.68ZM140,124.15l-.36-1.94,25.18-14.83.37,1.93Z"/><path class="cls-3" d="M69.3,10.14a8.58,8.58,0,0,0-1.18-.57l-.07,0-.2-.07c-.24-.09-.47-.17-.72-.24l-.42-.11-.23-.05L66.27,9c-.26-.06-.54-.11-.81-.15l-.3,0-.21,0a2.58,2.58,0,0,0-.29,0c-.27,0-.54,0-.81-.05H63c-.3,0-.61,0-.91.06H62l-.25,0L61,9,60.75,9c-.29.05-.56.13-.83.2s-.3.06-.44.11l-.33.13-.32.12a8,8,0,0,0-1.14.54L37.84,21.68l-.1.05-.21.15a3,3,0,0,0-.3.19l-.23.18-.25.21,0,0-.08.09a4.14,4.14,0,0,0-.35.38l-.08.08,0,.08c-.07.1-.14.19-.2.29a.83.83,0,0,1-.08.12s0,0,0,.06l-.12.26a.94.94,0,0,0-.06.15s0,0,0,0a2.17,2.17,0,0,0-.07.24c0,.06,0,.11-.05.17v0a2.6,2.6,0,0,0,0,.26,1.11,1.11,0,0,0,0,.17v3.73a1.94,1.94,0,0,1,0-.24,1.22,1.22,0,0,1,0-.26,1.6,1.6,0,0,1,0-.21,2.17,2.17,0,0,1,.07-.24c0-.07.06-.14.08-.2l.12-.26a1.74,1.74,0,0,0,.11-.18c.06-.1.13-.19.2-.29a1.83,1.83,0,0,1,.13-.16,4.14,4.14,0,0,1,.35-.38,1.59,1.59,0,0,1,.13-.13l.25-.21.23-.18a3,3,0,0,1,.3-.19l.31-.21L57.68,13.8a8,8,0,0,1,1.14-.54l.32-.13.77-.23a7.18,7.18,0,0,1,.83-.2c.32-.07.66-.13,1-.18l.25,0c.45-.05.92-.07,1.38-.08h.22a12.26,12.26,0,0,1,1.36.08l.21,0a11.37,11.37,0,0,1,1.32.23l.23,0c.39.1.77.22,1.14.35l.2.07a8.44,8.44,0,0,1,1.25.59l3.27,1.88V12Z"/><polygon class="cls-3" points="99.5 27.57 99.49 31.23 76.51 17.96 76.52 14.3 99.5 27.57"/><polygon class="cls-11" points="76.52 14.3 76.51 17.96 45.08 36.23 45.09 32.57 76.52 14.3"/><path class="cls-3" d="M109.12,33.13l-5.68-3.28v3.66l5.68,3.27c1.61.94,2.42,2.16,2.42,3.39V36.51C111.54,35.28,110.73,34.06,109.12,33.13Z"/><polygon class="cls-11" points="103.44 29.85 103.43 33.51 72.01 51.77 72.02 48.11 103.44 29.85"/><path class="cls-3" d="M116,36.89a2.87,2.87,0,0,1,0,.41c0,.1,0,.21-.08.32a2.72,2.72,0,0,1-.11.38l-.13.31c-.06.13-.12.27-.19.4l-.17.28c-.09.15-.19.3-.29.44l-.34.42-.08.1c-.17.18-.35.35-.54.52l-.38.32-.36.29-.45.3-.49.31L92.48,53.22c-.38.22-.78.42-1.19.61l-.36.15c-.33.14-.66.26-1,.38-.12,0-.24.09-.36.12l-.66.19-.5.14-.7.14-.48.1c-.48.09-1,.15-1.45.2l-.45,0c-.28,0-.57.05-.86.06H83.22l-.58,0-.65,0-.58,0-.64-.07-.57-.08L79.53,55,79,54.89c-.26,0-.53-.12-.79-.19s-.29-.07-.43-.12c-.47-.13-.92-.28-1.36-.45l-.64-.27-.33-.15c-.32-.15-.63-.31-.92-.48l-39.82-23a9.33,9.33,0,0,1-2.28-1.79A5.06,5.06,0,0,1,31,25v3.66c0,1.9,1.24,3.8,3.74,5.24l39.82,23c.29.17.6.33.92.48l.33.14.57.25.07,0a12.07,12.07,0,0,0,1.36.46l.1,0,.33.08.79.19.21.05a3,3,0,0,0,.32.06l.67.12.27,0,.3,0,.64.07.29,0L82,59l.65,0L83,59h1.51c.29,0,.58,0,.86-.06l.35,0,.1,0c.49,0,1-.11,1.45-.2h.07c.14,0,.27-.06.41-.09s.47-.09.7-.15l.5-.13.66-.19.14,0,.22-.08c.34-.12.67-.24,1-.38l.36-.15c.41-.19.81-.39,1.19-.61l19.85-11.53.16-.09c.11-.07.21-.15.33-.22s.31-.2.45-.31l.36-.28.38-.32.08-.06.46-.46.08-.1.25-.29a1,1,0,0,1,.09-.13c.1-.14.2-.29.29-.44s.09-.12.13-.19a.36.36,0,0,0,0-.09l.19-.4c0-.08.08-.15.11-.23s0-.05,0-.08.08-.25.11-.38a2.5,2.5,0,0,0,.07-.26.15.15,0,0,0,0-.07c0-.13,0-.26,0-.4a2.6,2.6,0,0,1,0-.26V36.52C116,36.65,116,36.77,116,36.89Z"/><path class="cls-5" d="M112.28,31.29c5,2.86,5,7.53,0,10.4L92.48,53.22c-4.93,2.87-13,2.87-18,0l-39.82-23c-5-2.87-5-7.54-.06-10.4L54.5,8.3c4.94-2.87,13-2.87,18,0ZM68.07,45.84,99.5,27.57l-23-13.27L45.09,32.57l23,13.27M89.3,51.39l19.85-11.54c3.2-1.85,3.18-4.87,0-6.72l-5.68-3.28L72,48.11l5.67,3.28a12.84,12.84,0,0,0,11.61,0M41.14,30.29,72.57,12,69.3,10.14a12.78,12.78,0,0,0-11.61,0L37.84,21.68c-3.19,1.85-3.17,4.87,0,6.72l3.26,1.89"/></g></g></svg>