<svg xmlns="http://www.w3.org/2000/svg" viewBox="0 0 193.47 138.9"><defs><style>.cls-1,.cls-7{fill:#fff;}.cls-1,.cls-12,.cls-13,.cls-14,.cls-15,.cls-16,.cls-2{fill-rule:evenodd;}.cls-2{fill:#b2b1af;}.cls-14,.cls-3{fill:#1e1e1e;}.cls-4{isolation:isolate;}.cls-12,.cls-5{fill:#333;}.cls-13,.cls-6{fill:#474c52;}.cls-8{fill:#d19705;}.cls-16,.cls-9{fill:#ffc60b;}.cls-10{fill:#eaae06;}.cls-11{fill:#bf8506;}.cls-15{fill:#2e3235;}.cls-17{fill:#e8e5e0;}</style></defs><g id="Layer_2" data-name="Layer 2"><g id="OBJECT"><path class="cls-1" d="M149.45,40.61a2,2,0,0,1,3.27,1.89,7.24,7.24,0,0,1-3.27,5.67,2,2,0,0,1-3.28-1.89,6.76,6.76,0,0,1,1-3.23A6.66,6.66,0,0,1,149.45,40.61Z"/><path class="cls-2" d="M150.27,41.08c1.8-1,3.27-.19,3.27,1.89a7.24,7.24,0,0,1-3.27,5.67c-1.81,1-3.28.2-3.28-1.89A7.26,7.26,0,0,1,150.27,41.08Z"/><path class="cls-3" d="M67,28.3c0-.34.09-.66.15-1a.5.5,0,0,1,0-.12,7.54,7.54,0,0,1,.23-.88.88.88,0,0,1,0-.15c.09-.26.18-.51.29-.75a.2.2,0,0,1,0-.08,6.12,6.12,0,0,1,.41-.76,6,6,0,0,1,.73-.9,1.8,1.8,0,0,1,.2-.19,4.81,4.81,0,0,1,.88-.68h0L16.82,53.74a5.25,5.25,0,0,0-.89.68l-.2.19a5.36,5.36,0,0,0-.72.9h0a5,5,0,0,0-.4.72v0l0,.08a4.25,4.25,0,0,0-.21.49l-.09.27s0,.1,0,.15a.78.78,0,0,1-.05.14c-.05.17-.09.35-.14.53a1.18,1.18,0,0,1,0,.2.51.51,0,0,1,0,.13c0,.06,0,.12,0,.19s-.05.33-.07.5a2.85,2.85,0,0,0,0,.29.31.31,0,0,0,0,.1s0,.08,0,.12l0,.49c0,.17,0,.34,0,.51v0L67,29.56c0-.4,0-.79,0-1.16A.31.31,0,0,0,67,28.3Z"/><g class="cls-4"><path class="cls-5" d="M21.77,54.53a3.17,3.17,0,0,1,.41-.21l.08,0,.14,0,.21-.08.24,0,.15,0,.07,0a4.26,4.26,0,0,1,.5-.06h.68l.25,0,.23,0,.21,0,.33.07.19,0,.42.12h0l.51.19.21.09.19.09a7.69,7.69,0,0,1,.76.38c.27.15.53.31.79.49a2.27,2.27,0,0,1,.25.18,6.28,6.28,0,0,1,.52.38l.29.23.47.4.28.25.17.16c.07.06.12.13.18.19l.56.57c.06.07.12.12.17.19l.15.17c.11.12.22.25.32.38l.21.25.17.22.23.31.16.21c.09.12.17.25.26.38l.16.23.07.1c.15.22.29.46.43.69l0,.05.08.15.29.49L34,62l.13.24a2.12,2.12,0,0,0,.11.21c.1.2.19.39.28.59l0,.1,0,0,.31.73a.78.78,0,0,0,0,.14l.1.27c0,.12.09.24.14.37l.09.28a3.38,3.38,0,0,0,.11.34l.06.21c0,.13.07.25.1.38s.07.28.11.42a.83.83,0,0,0,0,.15c0,.1,0,.2,0,.3s.09.44.12.65,0,.12,0,.18,0,.28,0,.41l0,.29c0,.31,0,.61,0,.91,0,2.6-.87,4.44-2.34,5.32l-5.15,3.08c1.46-.88,2.36-2.72,2.33-5.31,0-.3,0-.61,0-.91a2.54,2.54,0,0,0,0-.29c0-.2,0-.4-.07-.6l-.12-.65c0-.15-.06-.3-.1-.45s-.07-.28-.11-.42-.1-.39-.16-.58a3.38,3.38,0,0,0-.11-.34c-.07-.22-.15-.44-.23-.66s-.06-.18-.1-.27c-.12-.3-.24-.6-.37-.9l-.05-.1c-.12-.27-.25-.53-.39-.8,0-.08-.08-.16-.13-.24-.13-.25-.26-.49-.4-.73l-.09-.15c-.17-.28-.34-.56-.53-.84l-.16-.23c-.13-.2-.27-.39-.41-.59l-.24-.3-.37-.47-.33-.39c-.1-.12-.21-.24-.32-.35s-.36-.39-.55-.58L25,60.07l-.28-.25c-.15-.14-.31-.27-.47-.4L24,59.19l-.52-.38-.25-.18c-.26-.18-.53-.34-.79-.49s-.51-.27-.76-.38l-.2-.09c-.24-.1-.48-.2-.71-.28h-.05l-.6-.16-.34-.07-.44-.06-.24,0h-.65a4.07,4.07,0,0,0-.61.08l-.15,0a3.81,3.81,0,0,0-.45.13l-.13,0a4.53,4.53,0,0,0-.54.27l5.15-3.08Z"/><path class="cls-6" d="M22.44,58.14C27,60.71,30.77,67,30.81,72.26s-3.62,7.38-8.2,4.81S14.28,68.18,14.23,63,17.85,55.57,22.44,58.14Z"/></g><g class="cls-4"><path class="cls-7" d="M22.48,62.69A9.37,9.37,0,0,1,26.83,70c0,2.72-1.88,3.83-4.26,2.5a9.39,9.39,0,0,1-4.35-7.33C18.19,62.47,20.1,61.35,22.48,62.69Z"/></g><path class="cls-3" d="M153.28,78.1c0-.34.08-.67.14-1l0-.12a7.9,7.9,0,0,1,.22-.87,1.42,1.42,0,0,0,.05-.16q.14-.39.3-.75l0-.08a7.85,7.85,0,0,1,.42-.76,5.8,5.8,0,0,1,.72-.9l.2-.19a5.19,5.19,0,0,1,.89-.67l-53.22,30.92a4.81,4.81,0,0,0-.88.68,1.8,1.8,0,0,0-.2.19,5.41,5.41,0,0,0-.73.9h0c-.14.23-.27.47-.4.72v0l0,.08-.21.49a2,2,0,0,0-.08.26l-.06.15s0,.09,0,.14-.1.35-.14.54a1.18,1.18,0,0,0,0,.2l0,.12,0,.19c0,.17-.06.33-.08.5l0,.29s0,.07,0,.1,0,.08,0,.12,0,.33,0,.5,0,.33,0,.5v0l53.21-30.92a11,11,0,0,1,.06-1.16A.28.28,0,0,1,153.28,78.1Z"/><g class="cls-4"><path class="cls-5" d="M108.66,103.83a3.17,3.17,0,0,1,.41-.21l.08,0,.14,0,.22-.08.23,0,.15,0,.08,0a3.86,3.86,0,0,1,.49-.06h.16c.13,0,.25,0,.39,0h.13l.25,0,.23,0,.21,0,.34.07.18,0a3.31,3.31,0,0,1,.42.12h0l.51.19a1.89,1.89,0,0,1,.21.09l.19.08c.25.12.51.24.76.39s.53.31.79.49l.26.17.52.39.28.23c.16.13.32.26.47.4l.28.25.18.16c.06.06.11.13.18.19l.55.57.18.19s.09.11.14.17.22.25.32.38l.21.25.17.22.23.31.16.21c.09.12.17.25.26.38l.16.23a.86.86,0,0,1,.07.1c.15.22.29.45.43.69l0,0,.09.15c.09.16.19.32.28.49l.12.24c0,.08.09.16.13.24a2.12,2.12,0,0,1,.11.21c.1.2.19.39.28.59a1,1,0,0,1,0,.1l0,0c.11.24.21.48.31.73l0,.14.1.27c.05.12.09.24.14.37l.09.28c0,.12.07.23.11.34l.06.21c0,.13.07.25.1.38s.08.28.11.42,0,.1,0,.14,0,.21,0,.31.09.43.12.65c0,.06,0,.12,0,.18s0,.28,0,.41,0,.2,0,.29c0,.31,0,.61,0,.91,0,2.6-.87,4.44-2.34,5.32l-5.15,3.08c1.47-.88,2.36-2.72,2.34-5.31,0-.3,0-.61,0-.91l0-.3c0-.19,0-.39-.08-.59l-.12-.65c0-.15-.06-.3-.1-.45s-.07-.28-.11-.42-.1-.39-.16-.58-.07-.23-.11-.35-.14-.43-.22-.65l-.11-.27c-.11-.3-.24-.6-.37-.9l0-.1c-.12-.27-.25-.53-.39-.8l-.12-.24c-.13-.25-.27-.49-.41-.73l-.09-.15c-.16-.29-.34-.56-.52-.84-.06-.08-.11-.16-.17-.23s-.27-.4-.41-.59a3.55,3.55,0,0,1-.23-.31c-.13-.15-.25-.31-.38-.47l-.33-.38c-.1-.12-.21-.24-.32-.35s-.36-.39-.55-.58l-.35-.35-.28-.25-.47-.4-.29-.23c-.17-.14-.35-.26-.52-.38l-.25-.18c-.26-.18-.53-.34-.79-.49a7.69,7.69,0,0,0-.76-.38l-.2-.09c-.24-.1-.48-.2-.71-.28h0c-.2-.07-.4-.11-.6-.16l-.34-.07-.43-.06-.25,0h-.65a4.07,4.07,0,0,0-.61.08l-.14,0a3,3,0,0,0-.45.13l-.14,0a3.4,3.4,0,0,0-.54.27l5.16-3.08Z"/><path class="cls-6" d="M109.33,107.44c4.58,2.57,8.33,8.89,8.38,14.12s-3.63,7.38-8.2,4.81-8.34-8.89-8.39-14.12S104.75,104.87,109.33,107.44Z"/></g><g class="cls-4"><path class="cls-7" d="M109.37,112a9.37,9.37,0,0,1,4.35,7.33c0,2.72-1.88,3.83-4.26,2.5a9.41,9.41,0,0,1-4.35-7.33C105.09,111.77,107,110.65,109.37,112Z"/></g><polygon class="cls-8" points="2.1 38.04 55.32 7.12 95.85 0 42.63 30.93 2.1 38.04"/><path class="cls-5" d="M76.5,6.45,64.38,8.52a11.73,11.73,0,0,0-3.89,1.41L27,29.39a.58.58,0,0,0,.39,1.08L39.51,28.4A11.73,11.73,0,0,0,43.4,27L76.89,7.53A.58.58,0,0,0,76.5,6.45Z"/><polygon class="cls-9" points="42.63 30.93 95.85 0 130.4 19.95 77.18 50.87 42.63 30.93"/><polygon class="cls-10" points="77.18 50.87 130.4 19.95 155.17 55.2 101.96 86.13 77.18 50.87"/><path class="cls-5" d="M146.68,48.37,133,28.89a6.6,6.6,0,0,0-8.7-1.91L87.75,48.22a6.58,6.58,0,0,0-2.08,9.48L99.36,77.18a6.58,6.58,0,0,0,8.7,1.91L144.6,57.85A6.58,6.58,0,0,0,146.68,48.37Z"/><polygon class="cls-9" points="101.96 86.13 155.17 55.2 177.21 67.92 123.99 98.85 101.96 86.13"/><polygon class="cls-8" points="136.55 118.13 189.76 87.2 189.72 100.43 136.51 131.35 136.55 118.13"/><polygon class="cls-10" points="123.99 98.85 177.21 67.92 189.76 87.2 136.55 118.13 123.99 98.85"/><path class="cls-11" d="M77.18,50.87,102,86.13l22,12.72,12.56,19.28,0,13.23-15.5-9c0-6.67-4.67-14.79-10.47-18.14s-10.53-.67-10.54,6L34.78,72.62c0-6.67-4.67-14.79-10.48-18.15s-10.53-.66-10.55,6L2.06,53.73,2.1,38l40.53-7.11Z"/><polygon class="cls-12" points="13.75 56.62 13.75 63.23 11.71 64.34 11.71 57.8 13.75 56.62"/><path class="cls-13" d="M13.75,56.62l-2,1.18C3,55.9.4,51.57,0,48.06a6.43,6.43,0,0,1,2-5.4L2,47.3v.51c0,1.82,1.64,3.66,4.19,5.13Z"/><polygon class="cls-14" points="11.71 57.8 11.71 64.34 4.96 61.13 4.73 61.01 4.5 60.88 4.28 60.75 4.05 60.62 3.83 60.48 3.61 60.34 3.4 60.19 3.19 60.03 2.98 59.87 2.77 59.7 2.58 59.53 2.38 59.35 2.19 59.17 2.01 58.98 1.83 58.78 1.66 58.58 1.49 58.37 1.33 58.15 1.18 57.93 1.04 57.7 0.9 57.46 0.77 57.21 0.65 56.95 0.54 56.69 0.44 56.42 0.35 56.14 0.26 55.85 0.19 55.55 0.13 55.25 0.08 54.93 0.04 54.61 0.02 54.41 0.01 54.21 0 54.01 0 47.46 0.01 47.66 0.02 47.86 0.04 48.06 0.08 48.38 0.13 48.7 0.19 49.01 0.26 49.3 0.35 49.59 0.44 49.87 0.54 50.14 0.65 50.41 0.77 50.66 0.9 50.91 1.04 51.15 1.18 51.38 1.33 51.6 1.49 51.82 1.66 52.03 1.83 52.23 2.01 52.43 2.19 52.62 2.38 52.81 2.58 52.98 2.77 53.16 2.98 53.32 3.19 53.48 3.4 53.64 3.61 53.79 3.83 53.93 4.05 54.07 4.28 54.2 4.5 54.33 4.73 54.46 4.96 54.58 11.71 57.8"/><path class="cls-12" d="M62.58,64.11l-4.26-2.47a1.83,1.83,0,0,1-.76-1.46h0c0-.55.34-.81.76-.57l4.26,2.47a1.83,1.83,0,0,1,.76,1.46h0C63.34,64.1,63,64.36,62.58,64.11Z"/><path class="cls-15" d="M143.74,116.86c2-1.14,3.57-.21,3.57,2.07a7.9,7.9,0,0,1-3.57,6.18c-2,1.14-3.57.22-3.57-2.06A7.9,7.9,0,0,1,143.74,116.86Z"/><polygon class="cls-13" points="141.21 125.36 139.96 124.64 139.73 124.48 139.52 124.28 139.34 124.04 139.19 123.77 139.07 123.46 138.99 123.12 138.93 122.74 138.91 122.33 138.93 121.89 138.99 121.45 139.07 121.01 139.19 120.56 139.34 120.11 139.52 119.67 139.73 119.23 139.96 118.81 140.21 118.39 140.49 118 140.78 117.62 141.09 117.27 141.42 116.94 141.77 116.64 142.12 116.37 142.49 116.14 142.85 115.95 143.21 115.81 143.55 115.71 143.88 115.66 144.19 115.65 144.48 115.69 144.76 115.77 145.01 115.89 146.27 116.61 146.01 116.49 145.74 116.42 145.44 116.38 145.13 116.39 144.8 116.44 144.46 116.53 144.1 116.67 143.74 116.86 143.37 117.09 143.02 117.36 142.68 117.66 142.35 117.99 142.04 118.34 141.74 118.72 141.47 119.12 141.21 119.53 140.98 119.96 140.78 120.39 140.6 120.84 140.45 121.28 140.33 121.73 140.24 122.18 140.19 122.62 140.17 123.05 140.19 123.46 140.24 123.84 140.33 124.19 140.45 124.49 140.6 124.77 140.78 125 140.98 125.2 141.21 125.36"/><path class="cls-16" d="M143.74,117.93c1.46-.84,2.64-.16,2.64,1.53a5.83,5.83,0,0,1-2.64,4.58c-1.46.85-2.65.16-2.65-1.52A5.87,5.87,0,0,1,143.74,117.93Z"/><path class="cls-15" d="M185.68,92.65c2-1.14,3.58-.22,3.58,2.06a7.89,7.89,0,0,1-3.58,6.19c-2,1.14-3.57.22-3.57-2.06A7.9,7.9,0,0,1,185.68,92.65Z"/><polygon class="cls-13" points="183.16 101.15 181.9 100.43 181.67 100.27 181.47 100.07 181.29 99.83 181.14 99.56 181.02 99.25 180.93 98.9 180.88 98.53 180.86 98.11 180.88 97.68 180.93 97.24 181.02 96.8 181.14 96.35 181.29 95.9 181.47 95.46 181.67 95.02 181.9 94.59 182.16 94.18 182.43 93.78 182.73 93.41 183.04 93.05 183.37 92.72 183.71 92.43 184.06 92.16 184.43 91.93 184.79 91.74 185.15 91.59 185.49 91.5 185.82 91.45 186.13 91.44 186.43 91.48 186.7 91.56 186.96 91.68 188.21 92.4 187.96 92.28 187.68 92.2 187.38 92.17 187.07 92.17 186.75 92.22 186.4 92.32 186.05 92.46 185.68 92.65 185.32 92.88 184.96 93.15 184.62 93.45 184.29 93.78 183.98 94.13 183.69 94.51 183.41 94.9 183.16 95.32 182.93 95.74 182.72 96.18 182.54 96.62 182.39 97.07 182.27 97.52 182.18 97.97 182.13 98.41 182.11 98.84 182.13 99.25 182.18 99.63 182.27 99.97 182.39 100.28 182.54 100.56 182.72 100.79 182.93 100.99 183.16 101.15"/><path class="cls-16" d="M185.68,93.72c1.46-.84,2.65-.16,2.65,1.53a5.84,5.84,0,0,1-2.65,4.58c-1.46.84-2.64.16-2.64-1.53A5.85,5.85,0,0,1,185.68,93.72Z"/><path class="cls-14" d="M189.4,99.81v3.06h0l2.64-1.53.57-.39.43-.43.27-.45.14-.45V106l-.14.46-.27.44-.43.43-.57.39-2.64,1.53h0l-48.34,27.83h0l-1.71,1-.33.17-.35.16-.36.13-.38.11-.38.09-.4.07-.39.05-.39,0H136l-.38,0-.38,0-.37-.06-.35-.08-.33-.1-.31-.13-.29-.15-13.09-7.85-.47-.34-.33-.4-.17-.43v-6.4l.17.43.33.39.47.35,13.09,7.85.29.15.31.12.33.11.35.08.37.06.38,0h.78l.39,0,.39-.05.4-.07.38-.09.38-.11.36-.13.35-.16.33-.17,1.71-1h0l47.22-27.27Zm0,3.06v6.39h0Z"/><path class="cls-13" d="M120.89,120.73l15.81,9.42,53.08-30.56,0-3.17L192.47,98c1.48.85,1.29,2.36-.42,3.34l-2.64,1.53h0l-48.34,27.83h0l-1.71,1a6.49,6.49,0,0,1-5.79.24l-13.09-7.85C119,123.22,119.18,121.71,120.89,120.73Z"/><polygon class="cls-13" points="100 110.27 34.76 72.61 32.1 74.14 97.35 111.8 100 110.27"/><polygon class="cls-14" points="97.35 111.8 32.1 74.14 32.1 76.57 97.35 114.24 97.35 111.8"/><polygon class="cls-12" points="100 110.27 100 112.72 97.35 114.24 97.35 111.8 100 110.27"/><polygon class="cls-3" points="151.14 111.9 178.13 96.3 179.29 96.65 179.42 104.1 178.4 105.92 151.14 121.2 149.99 120.76 149.99 113.72 151.14 111.9"/><polygon class="cls-7" points="179.29 102.85 178.95 102.66 178.95 101.55 179.28 101.75 179.29 102.85"/><polygon class="cls-7" points="179.28 100.94 178.94 100.75 178.94 99.64 179.28 99.84 179.28 100.94"/><polygon class="cls-7" points="179.28 99.03 178.94 98.84 178.94 97.73 179.27 97.93 179.28 99.03"/><path class="cls-7" d="M178.93,96.72l-.34-.19a.71.71,0,0,1,.3.42l.34.2A.73.73,0,0,0,178.93,96.72Z"/><path class="cls-7" d="M179.24,103.68h0l-.33-.19-.06.23v0a2.18,2.18,0,0,1-.09.23h0a2.26,2.26,0,0,1-.11.22v0l-.12.2,0,0c0,.07-.09.13-.13.19l0,0a1.29,1.29,0,0,1-.16.17l-.12.11-.06,0-.2.14-26.63,15.28a1,1,0,0,1-.21.09l0,0-.19,0h-.21l-.17-.07.34.2h0l.06,0,.06,0h.3l.1,0,0,0h0l.05,0,.16-.08,26.63-15.27.2-.14.06,0,.12-.11h0l.13-.14,0,0,0,0,0,0,.08-.1,0,0,0,0,0-.05.06-.09,0-.06v0a.93.93,0,0,0,0-.1.93.93,0,0,1,.05-.1h0a.42.42,0,0,0,0-.1s0-.07,0-.11v0l0-.07,0-.13v0Z"/><polygon class="cls-7" points="150.34 119.47 150 119.28 178.95 102.66 179.29 102.85 150.34 119.47"/><polygon class="cls-7" points="178.94 100.75 149.99 117.37 150.33 117.56 179.28 100.94 178.94 100.75"/><polygon class="cls-7" points="178.94 98.84 149.99 115.46 150.32 115.65 179.28 99.03 178.94 98.84"/><polygon class="cls-7" points="178.89 96.95 150.02 113.52 150.36 113.72 179.23 97.15 178.89 96.95"/><path class="cls-7" d="M178.51,95.84l.3-.06h0a1.37,1.37,0,0,1,.29,0h0a1.48,1.48,0,0,1,.27.1l-.34-.19h0l-.1,0-.09,0h-.11l-.11,0h-.26l-.16,0-.07,0-.07,0-.08,0-.26.12L151.14,111.1a2.71,2.71,0,0,0-.35.24l-.1.1-.17.14-.07.07-.06.07-.07.07-.15.19,0,.06,0,0,0,.06-.11.16a1.4,1.4,0,0,1-.1.16h0s-.05.09-.07.14a1.09,1.09,0,0,0-.08.15l-.07.14h0l-.06.17c0,.06,0,.12-.07.17s0,.06,0,.09v0a.14.14,0,0,0,0,.06l-.06.21a.51.51,0,0,1,0,.13.13.13,0,0,1,0,.06s0,0,0,.07,0,.24,0,.36v5.85a1.33,1.33,0,0,0,.54,1.18l.34.19a1.28,1.28,0,0,1-.54-1.18v-5.85a3.07,3.07,0,0,1,0-.42s0,0,0-.06a3.06,3.06,0,0,1,.1-.41v0a2.32,2.32,0,0,1,.16-.44h0c.07-.15.14-.29.22-.43h0c.08-.14.16-.27.25-.4l0,0a4.15,4.15,0,0,1,.27-.32l.06-.07.23-.22.11-.09a2.71,2.71,0,0,1,.35-.24L178.1,96a2.06,2.06,0,0,1,.34-.16Z"/><path class="cls-17" d="M180,97.07c0-1.16-.83-1.64-1.85-1L151.48,111.3a4,4,0,0,0-1.84,3.18v5.85c0,1.17.84,1.64,1.86,1l26.62-15.27a4.07,4.07,0,0,0,1.84-3.19Zm-28.47,15L178.1,96.8c.54-.31,1-.14,1.13.35l-28.87,16.57A2.58,2.58,0,0,1,151.48,112.08Zm-1.16,2.47,29-16.62V99l-29,16.62Zm0,1.91,28.95-16.62v1.1l-28.95,16.62Zm27.8-11.13L151.5,120.6c-.53.31-1,.15-1.12-.35l28.86-16.57A2.62,2.62,0,0,1,178.13,105.33Zm-27.79,14.15v-1.11l29-16.62v1.1Z"/><path class="cls-1" d="M89.07,74.78a2.27,2.27,0,0,1,2.31-.22c.28.15.55.31.82.47a2.28,2.28,0,0,1,1,2.12,6.58,6.58,0,0,1-1,3.22,6.67,6.67,0,0,1-2.31,2.45,2.32,2.32,0,0,1-2.32.23l-.82-.48a2.29,2.29,0,0,1-1-2.12,6.67,6.67,0,0,1,1-3.22A6.85,6.85,0,0,1,89.07,74.78Z"/><path class="cls-2" d="M89.89,75.26c1.81-1.05,3.27-.2,3.27,1.89a7.23,7.23,0,0,1-3.27,5.67c-1.81,1-3.27.2-3.27-1.89A7.22,7.22,0,0,1,89.89,75.26Z"/><path class="cls-2" d="M89.41,79.36a.58.58,0,0,1,.15-.8.59.59,0,0,1,.81.15A10.9,10.9,0,0,0,97.24,83a.58.58,0,0,1-.19,1.15A12.17,12.17,0,0,1,89.41,79.36Z"/><path class="cls-5" d="M55.29,41.72l-8.81-5.09A14,14,0,0,0,37.06,35L28.35,36.5a1.72,1.72,0,0,0-.56,3.19l27.5,15.88Z"/><path class="cls-5" d="M89,72.92,76.22,54.76a8.88,8.88,0,0,0-2.83-2.59L57.56,43V56.88L87.72,74.29A1,1,0,0,0,89,72.92Z"/></g></g></svg>